<svg id="圖層_1" data-name="圖層 1" xmlns="http://www.w3.org/2000/svg" viewBox="0 0 283.04 290.69">
  <defs>
    <style>
      .cls-1{fill:#fbb03b;}.cls-2,.cls-3{fill:none;stroke:currentColor;stroke-miterlimit:10;}.cls-2{stroke-linecap:round;stroke-width:5px;}.cls-3{stroke:currentColor;stroke-width:8px;}.cls-4{fill:#00a99d;}
    </style>
  </defs>
  <title>Logo-2</title>
  <path
    d="M233.91,136l50.77,28.76.47,58.34-50.29,29.59L184.1,223.92l-.47-58.34L233.91,136m-.07-9.23L175.59,161l.55,67.58,58.8,33.31,58.25-34.26-.55-67.58-58.8-33.31Z"
    transform="translate(-10.15 -2)"/>
  <circle class="cls-1" cx="158.95" cy="230.59" r="60.09"/>
  <polygon points="114.09 130.07 113.58 67.12 167.85 35.19 222.63 66.23 223.14 129.19 168.87 161.11 114.09 130.07"/>
  <path
    d="M178,41.81l50.76,28.76.48,58.34L179,158.49l-50.76-28.76-.48-58.34L178,41.81M178,32.57,119.71,66.84l.55,67.58,58.8,33.31,58.25-34.27-.56-67.57L178,32.57Z"
    transform="translate(-10.15 -2)"/>
  <path
    d="M124.7,138.48l50.76,28.76.47,58.34-50.28,29.58L74.89,226.4l-.48-58.34,50.29-29.58m-.08-9.24L66.37,163.51l.55,67.58,58.8,33.31L184,230.13l-.55-67.58-58.8-33.31Z"
    transform="translate(-10.15 -2)"/>
  <line class="cls-2" x1="252.07" y1="49.03" x2="201.59" y2="78.72"/>
  <line class="cls-2" x1="167.7" y1="2.5" x2="168.17" y2="61.06"/>
  <line class="cls-3" x1="58.91" y1="188.68" x2="148.23" y2="239.28"/>
  <line class="cls-3" x1="73.35" y1="215.97" x2="115.09" y2="239.62"/>
  <path class="cls-4"
        d="M68.47,45.1l50.76,28.76.48,58.34L69.42,161.78,18.66,133l-.48-58.34L68.47,45.1m-.08-9.24L10.15,70.13l.55,67.58L69.5,171l58.24-34.27-.55-67.57L68.39,35.86Z"
        transform="translate(-10.15 -2)"/>
</svg>
